<svg width="24" height="24" viewBox="0 0 24 24" fill="none" xmlns="http://www.w3.org/2000/svg">
<g clip-path="url(#clip0_2002_4135)">
<rect width="24" height="24" rx="5" fill="#F2C94C"/>
<circle cx="19.5" cy="17.5" r="1.5" fill="#0C0637"/>
<path d="M5 15.0093V13.7021L8.22588 14.5089V14.8663C8.21907 15.5812 8.43004 16.1191 8.8588 16.4799C9.28756 16.834 9.88645 17.011 10.6555 17.011C11.4109 17.011 11.9894 16.8476 12.3909 16.5208C12.7993 16.1872 13.0034 15.7446 13.0034 15.1931C13.0034 14.6621 12.7959 14.2433 12.3807 13.937C11.9656 13.6238 11.1149 13.2868 9.8286 12.9259C8.27692 12.4766 7.11656 11.891 6.34752 11.1693C5.58529 10.4476 5.20417 9.49103 5.20417 8.29955C5.20417 6.97871 5.68737 5.93361 6.65377 5.16425C7.62698 4.38808 8.92686 4 10.5534 4C12.18 4 13.4866 4.38127 14.4735 5.14382C15.4603 5.90637 15.9537 6.94807 15.9537 8.26891V9.42281L12.7789 8.68763V8.40168C12.7789 7.79572 12.5917 7.31232 12.2174 6.95147C11.8499 6.59062 11.3088 6.4102 10.5942 6.4102C9.85923 6.4102 9.32158 6.55999 8.9813 6.85956C8.64102 7.15232 8.47088 7.54381 8.47088 8.03402C8.47088 8.51061 8.67845 8.88508 9.09359 9.15742C9.50874 9.42295 10.3731 9.74295 11.6865 10.1174C13.1906 10.5463 14.3271 11.1285 15.0962 11.8638C15.8652 12.5923 16.2531 13.6102 16.2599 14.9174C16.2599 16.3267 15.7495 17.4263 14.7287 18.2161C13.7078 18.9991 12.3569 19.3906 10.6759 19.3906C9.00852 19.3906 7.64399 19.0195 6.58231 18.2774C5.52744 17.5284 5 16.4391 5 15.0093Z" fill="#0C0637"/>
<path d="M17.9808 4.70364C17.9808 4.53105 17.8481 4.41156 17.6489 4.41156H17.3037V5.36747H17.4763V5.009H17.6622L17.7949 5.36747H17.9808L17.8082 4.98245C17.9144 4.92934 17.9808 4.83641 17.9808 4.70364ZM17.6489 4.86296H17.463V4.57088H17.6489C17.7684 4.57088 17.8082 4.62398 17.8082 4.71692C17.8082 4.79658 17.7817 4.86296 17.6489 4.86296Z" fill="#0C0637"/>
<path d="M18.4986 4.9028C18.4986 4.3983 18.1003 4 17.6091 4C17.1178 4 16.7195 4.41157 16.7195 4.9028C16.7195 5.39404 17.1178 5.80561 17.6091 5.80561C18.1003 5.80561 18.4986 5.40731 18.4986 4.9028ZM16.8789 4.9028C16.8789 4.50451 17.1975 4.17259 17.5958 4.17259C17.9941 4.17259 18.3127 4.50451 18.3127 4.9028C18.3127 5.3011 17.9941 5.63301 17.5958 5.63301C17.1975 5.63301 16.8789 5.31438 16.8789 4.9028Z" fill="#0C0637"/>
</g>
<defs>
<clipPath id="clip0_2002_4135">
<rect width="24" height="24" fill="white"/>
</clipPath>
</defs>
</svg>
