<svg width="121" height="24" viewBox="0 0 121 24" fill="none" xmlns="http://www.w3.org/2000/svg">
<circle cx="117.5" cy="15.5" r="2.5" fill="white"/>
<path d="M22 12.8674V11.3395L25.9401 12.2825V12.7003C25.9318 13.5358 26.1895 14.1645 26.7132 14.5862C27.2369 15 27.9684 15.2069 28.9077 15.2069C29.8304 15.2069 30.537 15.0159 31.0274 14.634C31.5262 14.244 31.7756 13.7268 31.7756 13.0822C31.7756 12.4615 31.522 11.9721 31.015 11.6141C30.5079 11.248 29.4688 10.8541 27.8978 10.4324C26.0025 9.90716 24.5852 9.22281 23.6459 8.37931C22.7149 7.53581 22.2494 6.41777 22.2494 5.0252C22.2494 3.48143 22.8396 2.25995 24.02 1.36074C25.2086 0.453581 26.7963 0 28.783 0C30.7697 0 32.3658 0.445623 33.5711 1.33687C34.7764 2.22812 35.3791 3.44562 35.3791 4.98939V6.33803L31.5012 5.47878V5.14456C31.5012 4.43634 31.2727 3.87135 30.8155 3.4496C30.3666 3.02785 29.7057 2.81698 28.8329 2.81698C27.9352 2.81698 27.2785 2.99204 26.8628 3.34217C26.4472 3.68435 26.2394 4.14191 26.2394 4.71485C26.2394 5.27188 26.4929 5.70955 27 6.02785C27.5071 6.3382 28.5628 6.7122 30.1671 7.14987C32.0042 7.65119 33.3924 8.33156 34.3317 9.19098C35.271 10.0424 35.7448 11.2321 35.7531 12.7599C35.7531 14.4072 35.1297 15.6923 33.8828 16.6154C32.6359 17.5305 30.9859 17.9881 28.9327 17.9881C26.8961 17.9881 25.2294 17.5544 23.9327 16.687C22.6442 15.8117 22 14.5385 22 12.8674Z" fill="white"/>
<path d="M37.3491 11.9005V11.5066C37.3491 9.62069 37.9393 8.13263 39.1197 7.04244C40.3084 5.95225 41.8878 5.40716 43.8579 5.40716C45.7781 5.40716 47.2452 5.83289 48.2594 6.68435C49.2735 7.53581 49.8138 8.63395 49.8803 9.97878V10.7746L46.0773 10.2175V10.0623C46.0773 9.48939 45.8944 9.02785 45.5287 8.67772C45.1712 8.31963 44.6309 8.14058 43.9077 8.14058C43.0682 8.14058 42.4323 8.42308 42 8.98806C41.5677 9.55305 41.3516 10.3369 41.3516 11.3395V12.0557C41.3516 13.0504 41.5636 13.8382 41.9875 14.4191C42.4115 15 43.0474 15.2904 43.8953 15.2904C44.6683 15.2904 45.2253 15.1074 45.5661 14.7414C45.9069 14.3674 46.0815 13.9098 46.0898 13.3687V13.2255L49.8803 12.7599L49.8928 13.4164C49.8845 14.7454 49.3566 15.8435 48.3092 16.7109C47.2702 17.5703 45.7905 18 43.8703 18C41.9002 18 40.3209 17.4549 39.1322 16.3647C37.9435 15.2666 37.3491 13.7785 37.3491 11.9005Z" fill="white"/>
<path d="M51.1646 11.9005V11.5066C51.1646 9.65252 51.7756 8.17241 52.9975 7.06631C54.2278 5.96021 55.8404 5.40716 57.8354 5.40716C59.8387 5.40716 61.4514 5.96021 62.6733 7.06631C63.9036 8.17241 64.5187 9.65252 64.5187 11.5066V11.9005C64.5187 13.7546 63.9036 15.2347 62.6733 16.3408C61.4514 17.4469 59.8387 18 57.8354 18C55.8404 18 54.2278 17.4469 52.9975 16.3408C51.7756 15.2347 51.1646 13.7546 51.1646 11.9005ZM55.1671 11.3395V12.0557C55.1671 13.0663 55.3957 13.8541 55.8529 14.4191C56.3184 14.9761 56.9792 15.2546 57.8354 15.2546C58.6999 15.2546 59.3608 14.9761 59.818 14.4191C60.2835 13.8541 60.5162 13.0663 60.5162 12.0557V11.3395C60.5162 10.3369 60.2835 9.56101 59.818 9.01194C59.3525 8.45491 58.6916 8.17639 57.8354 8.17639C56.9875 8.17639 56.3308 8.45491 55.8653 9.01194C55.3998 9.56101 55.1671 10.3369 55.1671 11.3395Z" fill="white"/>
<path d="M66.6384 17.6777V7.19761L70.5037 5.76525L70.5536 7.19761H70.591C70.882 6.7122 71.2685 6.30637 71.7506 5.98011C72.2411 5.64589 72.798 5.47878 73.4214 5.47878C73.6209 5.47878 73.8163 5.49867 74.0075 5.53846C74.207 5.57029 74.3483 5.60212 74.4314 5.63395V8.66578C74.2818 8.61804 74.1114 8.58223 73.9202 8.55835C73.729 8.53448 73.5212 8.52255 73.2968 8.52255C72.7398 8.52255 72.2203 8.68568 71.7382 9.01194C71.256 9.3382 70.8903 9.75995 70.6409 10.2772V17.6777H66.6384Z" fill="white"/>
<path d="M75.3292 8.48674V5.76525H83.5835V8.48674H75.3292ZM77.212 14.0491V6.7679L77.2743 6.5053V5.76525L81.1022 2.50663V13.5836C81.1022 14.244 81.2103 14.6857 81.4264 14.9085C81.6509 15.1313 81.9751 15.2427 82.399 15.2427C82.6068 15.2427 82.8063 15.2228 82.9975 15.183C83.1887 15.1432 83.3757 15.0915 83.5586 15.0279V17.6419C83.3425 17.7294 83.0308 17.809 82.6234 17.8806C82.2161 17.9523 81.7382 17.9881 81.1895 17.9881C79.9593 17.9881 78.9867 17.6737 78.2718 17.0451C77.5653 16.4164 77.212 15.4178 77.212 14.0491Z" fill="white"/>
<path d="M84.5312 11.9005V11.5066C84.5312 9.65252 85.1421 8.17241 86.3641 7.06631C87.5943 5.96021 89.207 5.40716 91.202 5.40716C93.2053 5.40716 94.818 5.96021 96.0399 7.06631C97.2702 8.17241 97.8853 9.65252 97.8853 11.5066V11.9005C97.8853 13.7546 97.2702 15.2347 96.0399 16.3408C94.818 17.4469 93.2053 18 91.202 18C89.207 18 87.5943 17.4469 86.3641 16.3408C85.1421 15.2347 84.5312 13.7546 84.5312 11.9005ZM88.5337 11.3395V12.0557C88.5337 13.0663 88.7623 13.8541 89.2194 14.4191C89.6849 14.9761 90.3458 15.2546 91.202 15.2546C92.0665 15.2546 92.7274 14.9761 93.1845 14.4191C93.65 13.8541 93.8828 13.0663 93.8828 12.0557V11.3395C93.8828 10.3369 93.65 9.56101 93.1845 9.01194C92.719 8.45491 92.0582 8.17639 91.202 8.17639C90.3541 8.17639 89.6974 8.45491 89.2319 9.01194C88.7664 9.56101 88.5337 10.3369 88.5337 11.3395Z" fill="white"/>
<path d="M100.005 17.6777V7.22149L103.82 5.76525L103.87 7.22149H103.92C104.236 6.70424 104.722 6.28647 105.379 5.96817C106.044 5.64987 106.809 5.49072 107.673 5.49072C108.953 5.49072 109.993 5.83687 110.791 6.52918C111.597 7.21353 112 8.39125 112 10.0623V17.6777H108.06V10.3011C108.06 9.58488 107.898 9.07958 107.574 8.78515C107.258 8.49072 106.809 8.3435 106.227 8.3435C105.736 8.3435 105.288 8.47878 104.88 8.74934C104.473 9.01989 104.161 9.3939 103.945 9.87135V17.6777H100.005Z" fill="white"/>
<path d="M16.377 8.97447L16.3732 8.96369C16.3043 8.78983 16.329 8.60736 16.3553 8.41482C16.3627 8.3595 16.3702 8.30418 16.3755 8.24958C16.4301 7.74596 16.2204 7.27683 16.0167 6.8235C15.8609 6.47579 15.6992 6.11586 15.6647 5.74802C15.8662 2.92533 14.9922 0.363424 13.7137 0.0365403C13.1071 -0.11864 12.1559 0.146459 11.0669 2.29527C10.9965 2.46697 10.8475 2.52014 10.5809 2.46769C9.79 2.35203 8.9332 2.35131 8.2232 2.46625C7.96781 2.52804 7.8652 2.38076 7.71841 2.13578C7.69145 2.0898 7.66374 2.04382 7.63603 2.00215C7.0144 1.00354 5.95015 -0.0877473 5.00273 0.118441C3.47114 0.3196 3.20601 3.1502 3.01279 5.21711C2.96111 5.7667 2.91692 6.24158 2.85476 6.59073C2.78061 7.18344 2.6136 7.78907 2.45257 8.37459C2.14476 9.49461 1.82646 10.6527 2.11031 11.8209C2.58439 13.6026 3.98267 15.1105 6.04826 16.0668C7.38663 16.686 8.85082 17 10.2558 17C11.3867 17 12.4795 16.7967 13.4351 16.385C14.2687 15.9353 15.0176 15.3562 15.5996 14.7125C17.1379 13.0602 17.4277 10.9149 16.3755 8.97303L16.377 8.97447ZM3.53929 4.61578C3.5378 4.29537 3.5363 4.01949 3.59397 3.66028C3.79244 1.92384 4.34516 0.798071 5.07314 0.650076C5.71648 0.519322 6.49763 1.14866 7.27279 2.42459C7.30424 2.47416 7.33345 2.52373 7.36191 2.57258C7.5132 2.83121 7.66973 3.09919 8.09888 2.9943C8.83434 2.83337 9.8941 2.84343 10.9344 3.0216H10.9426C11.3186 3.04602 11.4706 2.71339 11.5912 2.44614C11.6369 2.34484 11.6803 2.25001 11.7305 2.17888L11.7358 2.17098C12.0406 1.58906 12.6023 0.841177 12.9805 0.645047C13.322 0.462566 13.6351 0.451072 13.9114 0.612717C14.8768 1.17668 15.2491 3.6574 15.1966 5.15748L15.1951 5.22932C15.1914 5.42617 15.1869 5.62948 15.2079 5.81052C15.2468 6.16615 15.3607 6.44705 15.4805 6.74448C15.5119 6.8235 15.5449 6.90325 15.5763 6.98731C15.6318 7.13315 15.6205 7.16619 15.6198 7.16907C15.6198 7.16907 15.5883 7.18487 15.4588 7.13961C15.1217 7.03257 14.5293 6.87811 13.8927 6.8623C14.038 6.83644 14.196 6.77178 14.2777 6.65324C14.3338 6.57134 14.3443 6.47435 14.3076 6.3709C14.1698 6.01456 13.5018 5.92763 13.1161 5.90751C12.9655 5.89961 12.8053 5.89745 12.6525 5.93769C12.4765 5.98007 12.3297 6.08999 12.2705 6.22578C12.2278 6.32204 12.2331 6.42191 12.2855 6.50955C12.3686 6.63959 12.5177 6.70281 12.639 6.74304L12.6562 6.74807C12.9168 6.81991 13.1805 6.86374 13.4201 6.87882C13.3992 6.88098 13.3789 6.88242 13.358 6.88457C12.5731 6.97653 12.0121 7.33718 11.735 7.92844C11.6317 8.05632 11.4302 8.0398 11.2527 8.02471H11.2422C11.186 8.01896 11.1306 8.01681 11.0759 8.01465C10.9351 8.00819 10.8018 8.00244 10.7097 7.96221C10.5599 7.88677 10.4708 7.74237 10.3764 7.59007C10.2836 7.43991 10.1877 7.28473 10.0199 7.1741C9.66867 6.9794 9.22379 6.89535 8.76319 6.87379C9.23053 6.80914 9.51663 6.66832 9.61474 6.45064L9.61849 6.43987C9.65219 6.31414 9.59976 6.19776 9.4702 6.11155C9.09497 5.86297 8.03596 5.86369 7.54466 6.19488C7.34169 6.3321 7.26305 6.51099 7.31847 6.71215L7.32971 6.73586C7.39711 6.8623 7.61206 6.89032 7.80903 6.90541C7.43681 6.94348 7.09229 7.00383 6.82417 7.05915C6.29691 7.14249 6.10144 7.33574 5.92918 7.50673C5.74794 7.68633 5.60564 7.82858 5.08811 7.80775C4.28974 7.7941 3.76173 7.89324 3.44568 7.95215C3.27567 7.98376 3.11464 8.01394 3.08618 7.98592C3.04499 7.94569 3.10041 7.69783 3.17081 7.38388C3.18804 7.30772 3.20676 7.22295 3.22698 7.12955L3.23672 7.08357C3.37827 6.40251 3.52432 5.69773 3.54004 4.89453C3.54004 4.79683 3.54004 4.70559 3.54004 4.61722L3.53929 4.61578ZM9.01409 10.3754C7.91763 11.0392 7.03163 10.5528 6.60772 9.93644L6.60173 9.92638C6.3411 9.43283 6.11941 8.49169 6.43996 7.93635C6.58526 7.68418 6.82866 7.54193 7.16194 7.51319C9.01484 7.35586 9.61399 7.57641 9.78925 7.79122C10.4124 8.78768 9.8559 9.86604 9.01409 10.3754ZM6.85712 11.0895L6.86986 11.0874C6.95823 11.0723 7.05709 11.1046 7.14322 11.1362C8.1191 11.5012 9.49341 11.1226 10.1442 10.3079C10.6693 9.65195 11.5755 9.79419 12.4173 10.0471C11.893 10.0665 10.8909 10.1426 10.6797 10.8402C10.5614 11.2533 10.9037 11.6937 11.2617 11.9667C11.3897 12.0694 11.5515 12.1772 11.7432 12.2878C11.8533 12.3511 12.0571 12.4689 12.084 12.5939C12.1319 12.8001 11.8818 12.9704 11.7253 13.0393C11.0347 13.3526 9.99071 13.2685 9.1811 12.831C9.06277 12.7778 8.9684 12.6866 8.86879 12.5889C8.76469 12.4876 8.65759 12.3827 8.51229 12.3187C8.40969 12.2799 8.2921 12.2814 8.19699 12.3223C8.12883 12.3525 8.08015 12.3999 8.06068 12.456L8.05768 12.4689C7.9783 13.0041 9.57505 13.6212 9.89635 13.7218C10.1622 13.7937 10.4206 13.7973 10.6992 13.8009C11.1478 13.7872 11.7268 13.7376 12.2346 13.4797C12.5791 13.303 12.6113 12.9574 12.6397 12.6521L12.6427 12.6205C12.6622 12.3999 12.8839 12.3123 13.0981 12.2282L13.1438 12.2103C13.5879 12.0235 13.9302 11.5881 14.0155 11.0974C14.023 11.0385 14.0298 10.9983 14.0358 10.9717C14.0522 10.9954 14.074 11.032 14.1047 11.0874C14.3121 11.4717 14.4147 11.8827 14.4102 12.3065C14.372 13.8231 13.0711 15.1565 11.3823 15.408C10.6004 15.543 10.0274 15.5287 9.40429 15.3577C8.0824 15.0071 6.49164 14.0034 6.14787 12.8324C5.98011 12.262 6.1314 11.7303 6.59649 11.2526C6.69011 11.1592 6.77774 11.1039 6.85712 11.0895ZM11.8062 9.38756C11.7747 9.39547 11.7245 9.389 11.711 9.38756C11.3785 9.33081 11.0999 9.32578 10.864 9.3732C10.7981 9.38182 10.7247 9.40624 10.6535 9.42995C10.6004 9.44791 10.5225 9.47377 10.491 9.47377C10.491 9.47377 10.4903 9.47377 10.4895 9.47377C10.4738 9.44719 10.485 9.35164 10.4888 9.3186L10.4903 9.30279C10.5344 8.79486 10.825 8.54054 11.0939 8.51396C11.4055 8.48379 11.6893 8.73021 11.8151 9.14114C11.8586 9.2992 11.8556 9.3732 11.8054 9.38685L11.8062 9.38756ZM15.1083 10.1304C14.7353 10.5148 14.5143 10.5543 14.3938 10.5184L14.3885 10.5162C14.3361 10.4925 14.2814 10.43 14.2238 10.3646C14.1863 10.3215 14.1474 10.2777 14.1032 10.236C14.041 10.1764 13.9699 10.1096 13.9676 10.0327C13.9661 9.94578 14.0051 9.86244 14.047 9.77408C14.0582 9.74965 14.0702 9.72522 14.0807 9.70008C14.3436 9.06787 14.1279 8.57862 13.8395 8.3322C13.5886 8.11811 13.2666 8.06351 13.018 8.19211C12.6839 8.36596 12.5491 8.82719 12.648 9.45222L12.6502 9.4824C12.6547 9.53556 12.6562 9.56861 12.6465 9.58657C12.6375 9.58441 12.6188 9.57723 12.5963 9.55999C12.245 9.25969 12.2503 8.4493 12.3626 8.00244C12.472 7.68705 13.0007 7.35514 14.8918 7.56133C15.264 7.63533 15.5104 7.84654 15.6243 8.18923C15.8332 8.81785 15.5262 9.7008 15.1083 10.1304ZM4.64848 8.64543C5.09785 8.58365 5.45884 8.58221 5.51352 8.61813L5.52849 8.62819C5.61312 8.66914 5.63035 8.75751 5.65956 8.95364C5.69401 9.18138 5.74569 9.5255 5.99733 9.98889C6.0228 10.0356 6.04901 10.083 6.07373 10.1247C6.11342 10.2037 6.17184 10.2863 6.22801 10.3668C6.29392 10.4602 6.36207 10.5572 6.38529 10.6297C6.39727 10.7023 6.36282 10.7569 6.28568 10.8431C5.3435 11.6736 5.47532 12.5874 5.75168 13.2082C6.40925 14.6838 8.54 15.9863 10.2364 15.9856C10.3015 15.9856 10.3667 15.9834 10.4303 15.9798C11.8316 16.0811 13.364 15.3929 14.2462 14.2685C14.9592 13.359 15.1397 12.3116 14.7525 11.3151C14.7023 11.203 14.6829 11.05 14.8806 10.9573C15.5045 10.6549 15.9186 10.2662 16.1463 9.76833C16.162 9.79204 16.1815 9.83514 16.1927 9.86173L16.2055 9.89046C16.6698 11.106 16.5515 12.3532 15.8647 13.4955C15.2753 14.4755 14.2724 15.3706 13.0442 16.0136L13.0329 16.0186C10.3772 17.1437 6.36282 16.2873 4.08378 14.1091C2.51399 12.6068 2.10282 10.7784 2.92591 8.95723C3.00005 8.90119 3.10865 8.85952 3.22773 8.84228C3.71605 8.77116 4.16092 8.70722 4.64848 8.64543Z" fill="#0C0637"/>
<path d="M16.3162 10.101L16.3125 10.0901C16.2439 9.91378 16.2685 9.72873 16.2946 9.53347C16.302 9.47738 16.3095 9.42128 16.3147 9.36591C16.3692 8.85519 16.1603 8.37944 15.9575 7.91972C15.8024 7.5671 15.6413 7.2021 15.607 6.82907C15.8076 3.96658 14.9373 1.36855 13.6642 1.03706C13.0601 0.879687 12.113 1.14852 11.0286 3.32764C10.9585 3.50176 10.8101 3.55567 10.5446 3.50249C9.75707 3.38519 8.9039 3.38446 8.1969 3.50103C7.94259 3.56369 7.84041 3.41433 7.69424 3.1659C7.66739 3.11927 7.6398 3.07264 7.6122 3.03038C6.99321 2.01769 5.93345 0.911015 4.99004 1.12011C3.46492 1.32411 3.20092 4.19462 3.0085 6.29067C2.95705 6.84802 2.91304 7.32959 2.85115 7.68367C2.77731 8.28473 2.611 8.8989 2.45066 9.49267C2.14415 10.6285 1.82719 11.8029 2.10984 12.9876C2.58192 14.7944 3.97429 16.3236 6.03115 17.2933C7.36386 17.9213 8.82186 18.2397 10.2209 18.2397C11.3471 18.2397 12.4352 18.0335 13.3868 17.6161C14.2168 17.16 14.9626 16.5728 15.5421 15.92C17.0739 14.2443 17.3625 12.0688 16.3147 10.0996L16.3162 10.101ZM3.53279 5.68087C3.5313 5.35593 3.5298 5.07617 3.58723 4.71189C3.78486 2.95097 4.33525 1.80932 5.06015 1.65924C5.70077 1.52665 6.47862 2.16486 7.2505 3.45878C7.28182 3.50905 7.31091 3.55932 7.33925 3.60886C7.4899 3.87114 7.64576 4.14289 8.0731 4.03652C8.80545 3.87332 9.86073 3.88352 10.8966 4.06421H10.9048C11.2792 4.08898 11.4306 3.75165 11.5507 3.48063C11.5962 3.37791 11.6394 3.28174 11.6894 3.20961L11.6946 3.2016C11.9981 2.61146 12.5575 1.85304 12.9341 1.65414C13.2742 1.46909 13.5859 1.45743 13.8611 1.62136C14.8224 2.19327 15.1931 4.70898 15.1409 6.2302L15.1394 6.30306C15.1356 6.50268 15.1312 6.70886 15.152 6.89246C15.1908 7.25309 15.3042 7.53796 15.4235 7.83958C15.4548 7.91972 15.4876 8.00059 15.519 8.08583C15.5742 8.23373 15.563 8.26724 15.5622 8.27016C15.5622 8.27016 15.5309 8.28619 15.4019 8.24029C15.0663 8.13173 14.4764 7.97509 13.8425 7.95906C13.9871 7.93284 14.1445 7.86727 14.2258 7.74706C14.2817 7.664 14.2922 7.56564 14.2556 7.46073C14.1184 7.09937 13.4532 7.01121 13.0691 6.99081C12.9192 6.9828 12.7596 6.98061 12.6074 7.02141C12.4322 7.0644 12.286 7.17587 12.2271 7.31356C12.1846 7.41119 12.1898 7.51246 12.242 7.60134C12.3248 7.73321 12.4732 7.79733 12.594 7.83812L12.6112 7.84322C12.8707 7.91608 13.1332 7.96052 13.3719 7.97582C13.351 7.97801 13.3308 7.97946 13.31 7.98165C12.5284 8.07491 11.9698 8.44064 11.6939 9.04024C11.5909 9.16992 11.3903 9.15317 11.2136 9.13787H11.2031C11.1472 9.13204 11.092 9.12985 11.0376 9.12767C10.8974 9.12111 10.7646 9.11528 10.6729 9.07448C10.5237 8.99799 10.435 8.85155 10.341 8.69709C10.2485 8.54482 10.1531 8.38746 9.98602 8.27526C9.63625 8.07782 9.19326 7.99258 8.7346 7.97072C9.19997 7.90515 9.48486 7.76235 9.58256 7.5416L9.58628 7.53067C9.61984 7.40318 9.56764 7.28515 9.43862 7.19772C9.06498 6.94564 8.01045 6.94637 7.52122 7.28224C7.31911 7.42139 7.24081 7.6028 7.29599 7.8068L7.30718 7.83084C7.3743 7.95906 7.58834 7.98748 7.78448 8.00278C7.41383 8.04139 7.07077 8.10259 6.80378 8.15869C6.27875 8.2432 6.0841 8.43918 5.91257 8.61258C5.73209 8.79472 5.5904 8.93897 5.07506 8.91784C4.28006 8.904 3.75428 9.00454 3.43957 9.06428C3.27027 9.09634 3.10993 9.12694 3.08159 9.09853C3.04057 9.05773 3.09576 8.80638 3.16586 8.488C3.18302 8.41077 3.20166 8.3248 3.2218 8.23009L3.23149 8.18346C3.37245 7.49279 3.51787 6.77808 3.53353 5.96355C3.53353 5.86447 3.53353 5.77194 3.53353 5.68233L3.53279 5.68087ZM8.98444 11.5217C7.89262 12.1949 7.01036 11.7017 6.58825 11.0766L6.58228 11.0664C6.32275 10.5658 6.102 9.61143 6.42119 9.04826C6.56588 8.79253 6.80825 8.64828 7.14013 8.61914C8.98519 8.45958 9.58181 8.68325 9.75632 8.90109C10.3768 9.91159 9.8227 11.0052 8.98444 11.5217ZM6.83659 12.2459L6.84927 12.2437C6.93727 12.2284 7.03572 12.2612 7.12148 12.2932C8.09323 12.6633 9.46174 12.2794 10.1098 11.4532C10.6326 10.788 11.535 10.9323 12.3733 11.1888C11.8512 11.2084 10.8534 11.2857 10.6431 11.9931C10.5252 12.412 10.866 12.8586 11.2225 13.1355C11.3501 13.2396 11.5111 13.3489 11.7021 13.4611C11.8117 13.5252 12.0145 13.6447 12.0414 13.7715C12.0891 13.9806 11.84 14.1532 11.6842 14.2232C10.9966 14.5408 9.95694 14.4556 9.15075 14.0119C9.03292 13.958 8.93895 13.8655 8.83976 13.7664C8.73609 13.6637 8.62945 13.5573 8.48477 13.4924C8.3826 13.4531 8.26551 13.4546 8.17079 13.4961C8.10293 13.5267 8.05445 13.5748 8.03506 13.6316L8.03208 13.6447C7.95303 14.1875 9.54303 14.8133 9.86297 14.9153C10.1277 14.9882 10.385 14.9918 10.6624 14.9955C11.1092 14.9816 11.6857 14.9313 12.1913 14.6698C12.5344 14.4906 12.5664 14.1401 12.5948 13.8305L12.5977 13.7984C12.6171 13.5748 12.8379 13.4859 13.0512 13.4006L13.0967 13.3824C13.5389 13.193 13.8797 12.7515 13.9648 12.2539C13.9722 12.1942 13.9789 12.1534 13.9849 12.1264C14.0013 12.1504 14.0229 12.1876 14.0535 12.2437C14.2601 12.6335 14.3623 13.0502 14.3578 13.4801C14.3198 15.018 13.0243 16.3702 11.3426 16.6252C10.564 16.7622 9.99348 16.7476 9.37299 16.5742C8.05669 16.2187 6.47265 15.2009 6.13034 14.0134C5.96328 13.4349 6.11393 12.8958 6.57706 12.4113C6.67028 12.3166 6.75754 12.2605 6.83659 12.2459ZM11.7647 10.5199C11.7334 10.528 11.6834 10.5214 11.67 10.5199C11.3389 10.4624 11.0614 10.4573 10.8265 10.5054C10.7609 10.5141 10.6878 10.5389 10.617 10.5629C10.564 10.5811 10.4864 10.6074 10.4551 10.6074C10.4551 10.6074 10.4544 10.6074 10.4536 10.6074C10.438 10.5804 10.4492 10.4835 10.4529 10.45L10.4544 10.434C10.4984 9.91888 10.7877 9.66097 11.0555 9.63402C11.3657 9.60342 11.6484 9.85331 11.7737 10.27C11.8169 10.4303 11.8139 10.5054 11.764 10.5192L11.7647 10.5199ZM15.0529 11.2733C14.6815 11.663 14.4614 11.7031 14.3414 11.6667L14.3362 11.6645C14.284 11.6405 14.2295 11.5771 14.1721 11.5108C14.1348 11.4671 14.096 11.4226 14.052 11.3804C13.9901 11.3199 13.9193 11.2521 13.917 11.1742C13.9155 11.086 13.9543 11.0015 13.9961 10.9119C14.0073 10.8871 14.0192 10.8624 14.0296 10.8369C14.2914 10.1957 14.0766 9.69958 13.7895 9.44969C13.5397 9.23258 13.219 9.17721 12.9714 9.30762C12.6388 9.48393 12.5045 9.95166 12.603 10.5855L12.6052 10.6161C12.6097 10.67 12.6112 10.7035 12.6015 10.7217C12.5925 10.7196 12.5739 10.7123 12.5515 10.6948C12.2017 10.3903 12.207 9.56844 12.3188 9.11528C12.4277 8.79545 12.9542 8.45885 14.8373 8.66795C15.208 8.74299 15.4533 8.95719 15.5667 9.30471C15.7748 9.94219 15.469 10.8376 15.0529 11.2733ZM4.63729 9.76734C5.08476 9.70468 5.44422 9.70323 5.49866 9.73966L5.51358 9.74986C5.59785 9.79138 5.61501 9.88099 5.64409 10.0799C5.6784 10.3108 5.72986 10.6598 5.98044 11.1297C6.00579 11.1771 6.0319 11.2252 6.05651 11.2674C6.09603 11.3476 6.1542 11.4314 6.21014 11.513C6.27577 11.6077 6.34363 11.706 6.36675 11.7796C6.37868 11.8532 6.34438 11.9086 6.26756 11.996C5.32937 12.8382 5.46063 13.7649 5.73582 14.3944C6.39062 15.8909 8.51236 17.2117 10.2016 17.211C10.2664 17.211 10.3313 17.2088 10.3947 17.2052C11.7901 17.3079 13.3159 16.6099 14.1945 15.4697C14.9044 14.5474 15.0842 13.4852 14.6986 12.4747C14.6486 12.361 14.6292 12.2058 14.8261 12.1118C15.4474 11.8051 15.8598 11.411 16.0865 10.9061C16.1022 10.9301 16.1216 10.9738 16.1327 11.0008L16.1454 11.0299C16.6078 12.2626 16.49 13.5274 15.8061 14.6858C15.2192 15.6796 14.2206 16.5874 12.9975 17.2394L12.9863 17.2445C10.3418 18.3854 6.34438 17.517 4.07497 15.308C2.51182 13.7846 2.10238 11.9304 2.92199 10.0835C2.99583 10.0267 3.10396 9.98445 3.22254 9.96696C3.70879 9.89484 4.15179 9.83 4.63729 9.76734Z" fill="#F2C94C"/>
<path d="M8.63029 9.27552C8.48486 9.2063 8.25293 9.16186 7.974 9.35201C7.57054 9.68059 7.52728 10.4929 7.75997 10.9468C7.89122 11.2025 8.09333 11.3373 8.34093 11.3373C8.39761 11.3373 8.45727 11.33 8.51842 11.3162L8.53334 11.3118C9.0002 11.1719 9.19112 10.6073 9.13817 10.1257C9.11803 9.75782 8.90921 9.40811 8.63029 9.27552Z" fill="#F2C94C"/>
</svg>
