<svg width="121" height="24" viewBox="0 0 121 24" fill="none" xmlns="http://www.w3.org/2000/svg">
<circle cx="117.5" cy="15.5" r="2.5" fill="#F2C94C"/>
<path d="M22 12.8674V11.3395L25.9401 12.2825V12.7003C25.9318 13.5358 26.1895 14.1645 26.7132 14.5862C27.2369 15 27.9684 15.2069 28.9077 15.2069C29.8304 15.2069 30.537 15.0159 31.0274 14.634C31.5262 14.244 31.7756 13.7268 31.7756 13.0822C31.7756 12.4615 31.522 11.9721 31.015 11.6141C30.5079 11.248 29.4688 10.8541 27.8978 10.4324C26.0025 9.90716 24.5852 9.22281 23.6459 8.37931C22.7149 7.53581 22.2494 6.41777 22.2494 5.0252C22.2494 3.48143 22.8396 2.25995 24.02 1.36074C25.2086 0.453581 26.7963 0 28.783 0C30.7697 0 32.3658 0.445623 33.5711 1.33687C34.7764 2.22812 35.3791 3.44562 35.3791 4.98939V6.33803L31.5012 5.47878V5.14456C31.5012 4.43634 31.2727 3.87135 30.8155 3.4496C30.3666 3.02785 29.7057 2.81698 28.8329 2.81698C27.9352 2.81698 27.2785 2.99204 26.8628 3.34217C26.4472 3.68435 26.2394 4.14191 26.2394 4.71485C26.2394 5.27188 26.4929 5.70955 27 6.02785C27.5071 6.3382 28.5628 6.7122 30.1671 7.14987C32.0042 7.65119 33.3924 8.33156 34.3317 9.19098C35.271 10.0424 35.7448 11.2321 35.7531 12.7599C35.7531 14.4072 35.1297 15.6923 33.8828 16.6154C32.6359 17.5305 30.9859 17.9881 28.9327 17.9881C26.8961 17.9881 25.2294 17.5544 23.9327 16.687C22.6442 15.8117 22 14.5385 22 12.8674Z" fill="#F2C94C"/>
<path d="M37.3491 11.9005V11.5066C37.3491 9.62069 37.9393 8.13262 39.1197 7.04244C40.3084 5.95225 41.8878 5.40716 43.8579 5.40716C45.7781 5.40716 47.2452 5.83289 48.2593 6.68435C49.2735 7.53581 49.8138 8.63395 49.8803 9.97878V10.7746L46.0773 10.2175V10.0623C46.0773 9.48939 45.8944 9.02785 45.5287 8.67772C45.1712 8.31963 44.6309 8.14058 43.9077 8.14058C43.0682 8.14058 42.4323 8.42308 42 8.98806C41.5677 9.55305 41.3516 10.3369 41.3516 11.3395V12.0557C41.3516 13.0504 41.5636 13.8382 41.9875 14.4191C42.4115 15 43.0474 15.2904 43.8953 15.2904C44.6683 15.2904 45.2253 15.1074 45.5661 14.7414C45.9069 14.3674 46.0815 13.9098 46.0898 13.3687V13.2255L49.8803 12.7599L49.8928 13.4164C49.8845 14.7454 49.3566 15.8435 48.3092 16.7109C47.2702 17.5703 45.7905 18 43.8703 18C41.9002 18 40.3209 17.4549 39.1322 16.3647C37.9435 15.2666 37.3491 13.7785 37.3491 11.9005Z" fill="#F2C94C"/>
<path d="M51.1646 11.9005V11.5066C51.1646 9.65252 51.7756 8.17241 52.9975 7.06631C54.2278 5.96021 55.8404 5.40716 57.8354 5.40716C59.8387 5.40716 61.4514 5.96021 62.6733 7.06631C63.9036 8.17241 64.5187 9.65252 64.5187 11.5066V11.9005C64.5187 13.7546 63.9036 15.2347 62.6733 16.3408C61.4514 17.4469 59.8387 18 57.8354 18C55.8404 18 54.2278 17.4469 52.9975 16.3408C51.7756 15.2347 51.1646 13.7546 51.1646 11.9005ZM55.1671 11.3395V12.0557C55.1671 13.0663 55.3957 13.8541 55.8529 14.4191C56.3184 14.9761 56.9792 15.2546 57.8354 15.2546C58.6999 15.2546 59.3608 14.9761 59.818 14.4191C60.2835 13.8541 60.5162 13.0663 60.5162 12.0557V11.3395C60.5162 10.3369 60.2835 9.56101 59.818 9.01194C59.3525 8.45491 58.6916 8.17639 57.8354 8.17639C56.9875 8.17639 56.3308 8.45491 55.8653 9.01194C55.3998 9.56101 55.1671 10.3369 55.1671 11.3395Z" fill="#F2C94C"/>
<path d="M66.6384 17.6777V7.19761L70.5037 5.76525L70.5536 7.19761H70.591C70.882 6.7122 71.2685 6.30637 71.7506 5.98011C72.2411 5.64589 72.798 5.47878 73.4214 5.47878C73.6209 5.47878 73.8163 5.49867 74.0075 5.53846C74.207 5.57029 74.3483 5.60212 74.4314 5.63395V8.66578C74.2818 8.61804 74.1114 8.58223 73.9202 8.55835C73.729 8.53448 73.5212 8.52255 73.2968 8.52255C72.7398 8.52255 72.2203 8.68568 71.7382 9.01194C71.256 9.3382 70.8903 9.75995 70.6409 10.2772V17.6777H66.6384Z" fill="#F2C94C"/>
<path d="M75.3292 8.48674V5.76525H83.5835V8.48674H75.3292ZM77.212 14.0491V6.7679L77.2743 6.5053V5.76525L81.1022 2.50663V13.5836C81.1022 14.244 81.2103 14.6857 81.4264 14.9085C81.6509 15.1313 81.9751 15.2427 82.399 15.2427C82.6068 15.2427 82.8063 15.2228 82.9975 15.183C83.1887 15.1432 83.3757 15.0915 83.5586 15.0279V17.6419C83.3425 17.7294 83.0308 17.809 82.6234 17.8806C82.2161 17.9523 81.7382 17.9881 81.1895 17.9881C79.9593 17.9881 78.9867 17.6737 78.2718 17.0451C77.5653 16.4164 77.212 15.4178 77.212 14.0491Z" fill="#F2C94C"/>
<path d="M84.5312 11.9005V11.5066C84.5312 9.65252 85.1421 8.17241 86.3641 7.06631C87.5943 5.96021 89.207 5.40716 91.202 5.40716C93.2053 5.40716 94.8179 5.96021 96.0399 7.06631C97.2701 8.17241 97.8853 9.65252 97.8853 11.5066V11.9005C97.8853 13.7546 97.2701 15.2347 96.0399 16.3408C94.8179 17.4469 93.2053 18 91.202 18C89.207 18 87.5943 17.4469 86.3641 16.3408C85.1421 15.2347 84.5312 13.7546 84.5312 11.9005ZM88.5337 11.3395V12.0557C88.5337 13.0663 88.7623 13.8541 89.2194 14.4191C89.685 14.9761 90.3458 15.2546 91.202 15.2546C92.0665 15.2546 92.7273 14.9761 93.1845 14.4191C93.65 13.8541 93.8828 13.0663 93.8828 12.0557V11.3395C93.8828 10.3369 93.65 9.56101 93.1845 9.01194C92.719 8.45491 92.0582 8.17639 91.202 8.17639C90.3541 8.17639 89.6974 8.45491 89.2319 9.01194C88.7664 9.56101 88.5337 10.3369 88.5337 11.3395Z" fill="#F2C94C"/>
<path d="M100.005 17.6777V7.22149L103.82 5.76525L103.87 7.22149H103.92C104.236 6.70424 104.722 6.28647 105.379 5.96817C106.044 5.64987 106.809 5.49072 107.673 5.49072C108.953 5.49072 109.993 5.83687 110.791 6.52918C111.597 7.21353 112 8.39125 112 10.0623V17.6777H108.06V10.3011C108.06 9.58488 107.898 9.07958 107.574 8.78515C107.258 8.49072 106.809 8.3435 106.227 8.3435C105.736 8.3435 105.288 8.47878 104.88 8.74934C104.473 9.01989 104.161 9.3939 103.945 9.87135V17.6777H100.005Z" fill="#F2C94C"/>
<path d="M16.3195 10.1012L16.3157 10.0902C16.2471 9.91393 16.2717 9.72887 16.2978 9.53361C16.3053 9.47751 16.3127 9.42142 16.318 9.36604C16.3724 8.85532 16.1636 8.37956 15.9607 7.91984C15.8055 7.56721 15.6444 7.2022 15.6101 6.82917C15.8107 3.96663 14.9402 1.36855 13.6669 1.03706C13.0626 0.879685 12.1153 1.14853 11.0307 3.32767C10.9606 3.5018 10.8121 3.55572 10.5466 3.50253C9.75883 3.38523 8.90547 3.3845 8.19831 3.50107C7.94394 3.56373 7.84174 3.41437 7.69554 3.16593C7.66868 3.1193 7.64108 3.07267 7.61348 3.03042C6.99434 2.01771 5.93435 0.911014 4.99072 1.12011C3.46526 1.32411 3.20119 4.19467 3.00873 6.29076C2.95726 6.84811 2.91325 7.3297 2.85134 7.68378C2.77749 8.28485 2.61114 8.89903 2.45076 9.49282C2.14418 10.6287 1.82715 11.8031 2.10986 12.9878C2.58205 14.7946 3.97474 16.3239 6.03207 17.2936C7.36508 17.9216 8.82341 18.24 10.2228 18.24C11.3492 18.24 12.4375 18.0338 13.3894 17.6163C14.2196 17.1603 14.9656 16.573 15.5452 15.9202C17.0773 14.2445 17.366 12.069 16.318 10.0997L16.3195 10.1012ZM3.53314 5.68095C3.53165 5.35601 3.53015 5.07624 3.58759 4.71195C3.78527 2.951 4.33578 1.80934 5.06084 1.65925C5.70161 1.52665 6.47964 2.16488 7.2517 3.45882C7.28303 3.50909 7.31212 3.55936 7.34047 3.6089C7.49115 3.87119 7.64705 4.14294 8.07448 4.03657C8.807 3.87337 9.86252 3.88357 10.8986 4.06426H10.9069C11.2813 4.08903 11.4327 3.7517 11.5528 3.48067C11.5983 3.37794 11.6416 3.28177 11.6916 3.20965L11.6968 3.20163C12.0004 2.61149 12.5599 1.85305 12.9366 1.65415C13.2767 1.4691 13.5885 1.45744 13.8638 1.62137C14.8253 2.19329 15.1961 4.70904 15.1438 6.23029L15.1424 6.30314C15.1386 6.50277 15.1341 6.70896 15.155 6.89256C15.1938 7.2532 15.3072 7.53807 15.4266 7.83969C15.4579 7.91984 15.4907 8.00071 15.522 8.08595C15.5772 8.23385 15.5661 8.26736 15.5653 8.27028C15.5653 8.27028 15.534 8.28631 15.4049 8.24041C15.0693 8.13185 14.4792 7.97521 13.8451 7.95918C13.9899 7.93295 14.1473 7.86738 14.2286 7.74717C14.2845 7.66411 14.295 7.56575 14.2584 7.46084C14.1212 7.09947 13.4558 7.01131 13.0716 6.99091C12.9217 6.9829 12.762 6.98071 12.6099 7.02151C12.4346 7.0645 12.2884 7.17597 12.2294 7.31367C12.1869 7.4113 12.1921 7.51257 12.2443 7.60145C12.3271 7.73332 12.4756 7.79744 12.5964 7.83824L12.6136 7.84334C12.8732 7.91619 13.1357 7.96064 13.3745 7.97594C13.3536 7.97812 13.3334 7.97958 13.3125 7.98177C12.5308 8.07502 11.9721 8.44076 11.6961 9.04037C11.5931 9.17006 11.3925 9.1533 11.2157 9.138H11.2052C11.1493 9.13217 11.0941 9.12999 11.0396 9.1278C10.8994 9.12125 10.7666 9.11542 10.6749 9.07462C10.5257 8.99812 10.4369 8.85168 10.3429 8.69722C10.2504 8.54495 10.1549 8.38758 9.98784 8.27538C9.63799 8.07794 9.1949 7.99269 8.73614 7.97084C9.20161 7.90527 9.48656 7.76247 9.58428 7.54171L9.58801 7.53078C9.62158 7.40328 9.56936 7.28525 9.44031 7.19783C9.06659 6.94574 8.01182 6.94647 7.52248 7.28234C7.32032 7.4215 7.242 7.60291 7.2972 7.80691L7.30839 7.83095C7.37552 7.95918 7.58961 7.98759 7.7858 8.00289C7.41506 8.04151 7.07192 8.10271 6.80487 8.15881C6.27972 8.24332 6.08503 8.43931 5.91346 8.6127C5.73294 8.79485 5.59121 8.9391 5.07576 8.91797C4.28058 8.90413 3.75468 9.00467 3.43989 9.06442C3.27056 9.09647 3.11018 9.12707 3.08184 9.09866C3.04081 9.05786 3.09601 8.8065 3.16613 8.48812C3.18329 8.41089 3.20194 8.32492 3.22208 8.23021L3.23177 8.18358C3.37276 7.4929 3.51822 6.77817 3.53388 5.96363C3.53388 5.86455 3.53388 5.77202 3.53388 5.6824L3.53314 5.68095ZM8.98603 11.5219C7.89396 12.1951 7.0115 11.7018 6.58929 11.0767L6.58333 11.0665C6.32374 10.566 6.10293 9.61157 6.4222 9.04839C6.56692 8.79266 6.80935 8.6484 7.1413 8.61926C8.98678 8.45971 9.58354 8.68338 9.75809 8.90122C10.3787 9.91174 9.82448 11.0053 8.98603 11.5219ZM6.8377 12.2461L6.85038 12.2439C6.9384 12.2286 7.03686 12.2614 7.12265 12.2934C8.09462 12.6635 9.46344 12.2796 10.1117 11.4534C10.6346 10.7882 11.5372 10.9325 12.3756 11.1889C11.8535 11.2086 10.8554 11.2858 10.645 11.9933C10.5272 12.4122 10.8681 12.8588 11.2246 13.1357C11.3522 13.2398 11.5133 13.3491 11.7043 13.4613C11.8139 13.5254 12.0168 13.6449 12.0437 13.7717C12.0914 13.9808 11.8423 14.1535 11.6864 14.2234C10.9986 14.5411 9.95875 14.4558 9.15238 14.0121C9.03452 13.9582 8.94053 13.8657 8.84132 13.7666C8.73763 13.6639 8.63096 13.5575 8.48624 13.4927C8.38405 13.4533 8.26694 13.4548 8.1722 13.4963C8.10432 13.5269 8.05583 13.575 8.03644 13.6318L8.03345 13.6449C7.95438 14.1877 9.54475 14.8135 9.86476 14.9155C10.1296 14.9884 10.3869 14.992 10.6644 14.9957C11.1112 14.9818 11.6879 14.9316 12.1936 14.67C12.5368 14.4908 12.5688 14.1403 12.5972 13.8307L12.6002 13.7986C12.6196 13.575 12.8404 13.4861 13.0537 13.4009L13.0992 13.3826C13.5415 13.1932 13.8824 12.7517 13.9675 12.2541C13.9749 12.1943 13.9817 12.1535 13.9876 12.1266C14.004 12.1506 14.0257 12.1878 14.0563 12.2439C14.2629 12.6337 14.3651 13.0504 14.3606 13.4803C14.3226 15.0183 13.0268 16.3705 11.3447 16.6255C10.566 16.7625 9.9953 16.7479 9.37467 16.5745C8.05807 16.219 6.47367 15.2011 6.13128 14.0136C5.96419 13.4351 6.11487 12.896 6.5781 12.4115C6.67135 12.3167 6.75862 12.2606 6.8377 12.2461ZM11.7669 10.5201C11.7356 10.5281 11.6856 10.5216 11.6722 10.5201C11.341 10.4625 11.0635 10.4574 10.8285 10.5055C10.7629 10.5143 10.6898 10.539 10.6189 10.5631C10.566 10.5813 10.4884 10.6075 10.457 10.6075C10.457 10.6075 10.4563 10.6075 10.4556 10.6075C10.4399 10.5806 10.4511 10.4837 10.4548 10.4502L10.4563 10.4341C10.5003 9.91903 10.7897 9.66111 11.0575 9.63416C11.3678 9.60356 11.6506 9.85346 11.7759 10.2702C11.8191 10.4305 11.8162 10.5055 11.7662 10.5194L11.7669 10.5201ZM15.0558 11.2734C14.6843 11.6632 14.4643 11.7033 14.3442 11.6669L14.339 11.6647C14.2868 11.6406 14.2323 11.5772 14.1749 11.5109C14.1376 11.4672 14.0988 11.4228 14.0548 11.3805C13.9928 11.3201 13.922 11.2523 13.9197 11.1743C13.9183 11.0862 13.957 11.0017 13.9988 10.9121C14.01 10.8873 14.0219 10.8625 14.0324 10.837C14.2942 10.1959 14.0794 9.69973 13.7922 9.44983C13.5423 9.23272 13.2215 9.17734 12.9739 9.30776C12.6412 9.48407 12.5069 9.95181 12.6054 10.5857L12.6076 10.6163C12.6121 10.6702 12.6136 10.7037 12.6039 10.7219C12.5949 10.7197 12.5763 10.7124 12.5539 10.695C12.2041 10.3904 12.2093 9.56859 12.3212 9.11542C12.4301 8.79558 12.9567 8.45898 14.8402 8.66808C15.211 8.74312 15.4564 8.95732 15.5698 9.30484C15.7779 9.94234 15.4721 10.8378 15.0558 11.2734ZM4.63789 9.76748C5.08546 9.70483 5.44501 9.70337 5.49946 9.7398L5.51438 9.75C5.59867 9.79153 5.61583 9.88114 5.64492 10.08C5.67923 10.311 5.73071 10.66 5.98134 11.1299C6.00671 11.1773 6.03282 11.2253 6.05743 11.2676C6.09697 11.3477 6.15515 11.4315 6.2111 11.5131C6.27674 11.6078 6.34462 11.7062 6.36775 11.7798C6.37968 11.8534 6.34537 11.9087 6.26854 11.9962C5.33013 12.8384 5.46142 13.7651 5.73667 14.3946C6.39162 15.8911 8.51384 17.212 10.2034 17.2113C10.2683 17.2113 10.3332 17.2091 10.3966 17.2054C11.7923 17.3082 13.3185 16.6102 14.1972 15.47C14.9074 14.5476 15.0872 13.4854 14.7015 12.4748C14.6515 12.3612 14.6321 12.206 14.8291 12.112C15.4504 11.8053 15.8629 11.4111 16.0897 10.9062C16.1054 10.9303 16.1248 10.974 16.136 11.0009L16.1486 11.0301C16.6111 12.2628 16.4933 13.5276 15.8092 14.686C15.2222 15.6798 14.2233 16.5876 13 17.2397L12.9888 17.2448C10.3437 18.3857 6.34537 17.5173 4.07544 15.3082C2.51193 13.7848 2.10241 11.9306 2.9222 10.0837C2.99605 10.0269 3.10422 9.9846 3.22282 9.96711C3.70918 9.89498 4.15228 9.83014 4.63789 9.76748Z" fill="#0C0637" stroke="#0C0637" stroke-width="0.5"/>
<path d="M8.6318 9.2757C8.48634 9.20649 8.25434 9.16204 7.97536 9.3522C7.5718 9.68078 7.52854 10.4931 7.76127 10.947C7.89256 11.2028 8.09471 11.3375 8.34237 11.3375C8.39906 11.3375 8.45873 11.3303 8.5199 11.3164L8.53482 11.312C9.00179 11.1722 9.19275 10.6075 9.13979 10.1259C9.11965 9.75801 8.91078 9.4083 8.6318 9.2757Z" fill="#0C0637"/>
</svg>
